<?xml version="1.0" encoding="utf-8"?>
<!-- Generator: Adobe Illustrator 26.5.0, SVG Export Plug-In . SVG Version: 6.00 Build 0)  -->
<svg version="1.1" id="Layer_1" xmlns="http://www.w3.org/2000/svg" xmlns:xlink="http://www.w3.org/1999/xlink" x="0px" y="0px"
	 viewBox="0 0 1920 1080" style="enable-background:new 0 0 1920 1080;" xml:space="preserve">
<style type="text/css">
	.st0{fill:#FFFFFF;stroke:#000000;stroke-miterlimit:10;}
</style>
<g>
	<g>
		<path class="st0" d="M699.69,988.82V92.64h131.6c33.09,0,57.14,8.05,72.14,24.15c15,16.1,27,44.73,36.02,85.89
			c9.01,41.17,13.52,88.24,13.52,141.21c0,67.24-6.83,122.78-20.49,166.58c-13.66,43.81-34.08,71.43-61.26,82.83
			c13.52,22.83,24.68,47.89,33.48,75.19c8.8,27.31,20.66,75.8,35.59,145.49l37.81,174.83h-74.78l-45.21-195.01
			c-16.05-69.69-27.04-113.6-32.95-131.74c-5.91-18.13-12.18-30.57-18.8-37.29c-6.62-6.72-17.11-10.09-31.47-10.09h-12.67v374.12
			H699.69z M762.22,471.65h46.26c30,0,48.72-3.67,56.19-11c7.46-7.34,13.31-19.96,17.53-37.9c4.22-17.93,6.34-40.35,6.34-67.24
			c0-30.15-2.78-54.5-8.34-73.05c-5.57-18.54-13.41-30.26-23.55-35.15c-5.07-2.03-20.28-3.06-45.63-3.06h-48.8V471.65z"/>
		<path class="st0" d="M985.07,988.82V825.6l162.65-581.35h-144.28V92.64h226.66v140.6l-169.62,604.58h176.17v150.99H985.07z"/>
	</g>
</g>
<g>
	<g>
		<path class="st0" d="M721.72,987.99V91.82h131.6c33.09,0,57.14,8.05,72.14,24.15c15,16.1,27,44.73,36.02,85.89
			c9.01,41.17,13.52,88.24,13.52,141.21c0,67.24-6.83,122.78-20.49,166.58c-13.66,43.81-34.08,71.43-61.26,82.83
			c13.52,22.83,24.68,47.89,33.48,75.19c8.8,27.31,20.66,75.8,35.59,145.49l37.81,174.83h-74.78l-45.21-195.01
			c-16.05-69.69-27.04-113.6-32.95-131.74c-5.91-18.13-12.18-30.57-18.8-37.29c-6.62-6.72-17.11-10.09-31.47-10.09h-12.67v374.12
			H721.72z M784.25,470.83h46.26c30,0,48.72-3.67,56.19-11c7.46-7.34,13.31-19.96,17.53-37.9c4.22-17.93,6.34-40.35,6.34-67.24
			c0-30.15-2.78-54.5-8.34-73.05c-5.57-18.54-13.41-30.26-23.55-35.15c-5.07-2.03-20.28-3.06-45.63-3.06h-48.8V470.83z"/>
		<path class="st0" d="M1007.11,987.99V824.78l162.65-581.35h-144.28V91.82h226.66v140.6L1082.52,837h176.17v150.99H1007.11z"/>
	</g>
</g>
<g>
</g>
<g>
</g>
<g>
</g>
<g>
</g>
<g>
</g>
<g>
</g>
<g>
</g>
<g>
</g>
<g>
</g>
<g>
</g>
<g>
</g>
<g>
</g>
<g>
</g>
<g>
</g>
<g>
</g>
</svg>
