<?xml version="1.0" encoding="utf-8"?>
<!-- Generator: Adobe Illustrator 26.5.0, SVG Export Plug-In . SVG Version: 6.00 Build 0)  -->
<svg version="1.1" id="Layer_1" xmlns="http://www.w3.org/2000/svg" xmlns:xlink="http://www.w3.org/1999/xlink" x="0px" y="0px"
	 viewBox="0 0 1920 1080" style="enable-background:new 0 0 1920 1080;" xml:space="preserve">
<style type="text/css">
	.st0{fill:none;}
	.st1{fill:#FFD700;}
	.st2{fill:#115173;}
</style>
<g>
	<rect x="501.05" y="231.57" class="st0" width="819.91" height="510.25"/>
</g>
<g>
	<g>
		<path class="st1" d="M652.26,660.64V140.47h127.57c32.08,0,55.39,4.67,69.93,14.02c14.54,9.35,26.17,25.96,34.91,49.85
			c8.73,23.9,13.1,51.22,13.1,81.96c0,39.03-6.62,71.26-19.86,96.69c-13.24,25.43-33.04,41.46-59.38,48.08
			c13.1,13.25,23.92,27.8,32.46,43.64c8.53,15.85,20.03,44,34.5,84.45l36.65,101.48h-72.49l-43.82-113.19
			c-15.56-40.45-26.21-65.94-31.94-76.46c-5.73-10.52-11.81-17.74-18.22-21.64c-6.42-3.9-16.59-5.85-30.51-5.85h-12.29v217.15
			H652.26z M712.87,360.46h44.84c29.08,0,47.23-2.13,54.47-6.39c7.23-4.26,12.9-11.59,17-22c4.1-10.41,6.14-23.42,6.14-39.03
			c0-17.5-2.7-31.64-8.09-42.4c-5.39-10.76-13-17.56-22.83-20.4c-4.91-1.18-19.66-1.77-44.23-1.77h-47.3V360.46z"/>
		<path class="st1" d="M928.89,660.64v-94.74l157.67-337.44H946.71v-88h219.71v81.61L1001.99,573h170.77v87.64H928.89z"/>
	</g>
</g>
<g>
	<g>
		<path class="st2" d="M673.62,648.17V127.99h127.57c32.08,0,55.39,4.67,69.93,14.02c14.54,9.35,26.17,25.96,34.91,49.85
			c8.73,23.9,13.1,51.22,13.1,81.96c0,39.03-6.62,71.26-19.86,96.69c-13.24,25.43-33.04,41.46-59.38,48.08
			c13.1,13.25,23.92,27.8,32.46,43.64c8.53,15.85,20.03,44,34.5,84.45l36.65,101.48h-72.49l-43.82-113.19
			c-15.56-40.45-26.21-65.94-31.94-76.46c-5.73-10.52-11.81-17.74-18.22-21.64c-6.42-3.9-16.59-5.85-30.51-5.85h-12.29v217.15
			H673.62z M734.23,347.98h44.84c29.08,0,47.23-2.13,54.47-6.39c7.23-4.26,12.9-11.59,17-22c4.1-10.41,6.14-23.42,6.14-39.03
			c0-17.5-2.7-31.64-8.09-42.4c-5.39-10.76-13-17.56-22.83-20.4c-4.91-1.18-19.66-1.77-44.23-1.77h-47.3V347.98z"/>
		<path class="st2" d="M950.25,648.17v-94.74l157.67-337.44H968.06v-88h219.71v81.61l-164.42,350.92h170.77v87.64H950.25z"/>
	</g>
</g>
<g>
</g>
<g>
</g>
<g>
</g>
<g>
</g>
<g>
</g>
<g>
</g>
<g>
</g>
<g>
</g>
<g>
</g>
<g>
</g>
<g>
</g>
<g>
</g>
<g>
</g>
<g>
</g>
<g>
</g>
</svg>
